<?xml version="1.0" encoding="UTF-8"?>
<svg width="752pt" height="752pt" version="1.1" viewBox="0 0 752 752" xmlns="http://www.w3.org/2000/svg">
 <defs>
  <clipPath id="a">
   <path d="m139.21 139.21h473.58v473.58h-473.58z"/>
  </clipPath>
 </defs>
 <g clip-path="url(#a)">
  <path d="m544.02 381.64-21.074-75.832 66.621-66.621c17.516-17.516 34.965-67.375 12.793-89.543-22.16-22.176-72.02-4.7266-89.543 12.793l-66.613 66.621-75.84-21.074c5.0312-15.812 1.207-33.305-11.039-45.551-17.625-17.633-46.32-17.633-63.957 0l-19.352 19.352-60.062-16.68-37.457 37.445 63.629 38.707-17.117 17.117c-3.5352 3.5352-3.5352 9.2578 0 12.793 3.5352 3.5352 9.2578 3.5352 12.793 0l20.223-20.223 15.91 9.6719-10.543 10.551c-3.5352 3.5352-3.5352 9.2578 0 12.793 3.5312 3.5352 9.2578 3.5352 12.793 0l13.668-13.668 71.578 43.547-69.32 69.32-102.34-12.793-47.898 47.906c-3.5352 3.5352-3.5352 9.2578 0 12.793s9.2578 3.5352 12.793 0l20.859-20.859 75.574 39.996c-2.9805 7.1914-5.3633 13.703-7.2148 19.559l-25.262 25.27c-0.45312 0.45312-40.312 49.223-25.59 63.957 15.938 15.938 63.512-25.129 63.965-25.582l20.512-20.504c8.9297-2.0508 18.16-5.4766 25.922-8.9531l38.391 72.562-20.867 20.859c-3.5352 3.5352-3.5352 9.2578 0 12.793 3.5352 3.5352 9.2578 3.5352 12.793 0l47.906-47.906-12.793-102.33 69.32-69.32 43.547 71.578-13.668 13.668c-3.5352 3.543-3.5352 9.2578 0 12.793 3.5352 3.5352 9.2578 3.5352 12.793 0l10.551-10.559 9.6797 15.91-20.223 20.223c-3.5352 3.5352-3.5352 9.2578 0 12.793 3.5352 3.5352 9.2578 3.5352 12.793 0l17.117-17.117 38.699 63.629 37.457-37.457-16.688-60.062 19.344-19.352c17.633-17.633 17.633-46.32 0-63.965-12.262-12.238-29.754-16.078-45.566-11.047zm-235.86-206.41c10.582-10.582 27.793-10.582 38.375 0 7.3633 7.3633 9.7148 18.328 6.4961 27.941l-28.859-8.0156-28.117-7.8281zm-100.59 23.84 13.711-13.711 40.039 11.121-0.023437 0.023438 100.59 27.926 0.015625-0.015625 69.602 19.336-56.918 56.918zm-18.672 197.75 7.3984-7.3906 80.895 10.102c-0.125 0.19141-0.28125 0.46484-0.42188 0.66406-1.3086 1.9609-2.6641 4.0977-4.0859 6.4688-0.015625 0.023438-0.035156 0.058594-0.050782 0.097656-1.4141 2.375-2.8789 4.9648-4.3438 7.6289-0.42969 0.77734-0.85156 1.582-1.2891 2.3828-1.082 2.0039-2.1445 4.0195-3.2109 6.1055-0.46484 0.88672-0.91016 1.7617-1.3633 2.6719-1.1016 2.1836-2.168 4.3594-3.2188 6.543-0.25 0.51172-0.51953 1.0352-0.76172 1.5469zm55.301 123.78c-5.8164 5.8086-23.902 17.648-34.543 22.25 4.8906-10.582 16.688-28.539 21.754-35.039l68.84-68.848 19.188-6.3945-6.3945 19.188zm111 42.504-35.527-67.16c0.37891-0.19922 0.74609-0.42188 1.125-0.62109 2.3516-1.2734 4.6758-2.5664 6.9688-3.8789 0.83594-0.47266 1.6484-0.95312 2.4727-1.4336 2.0273-1.1914 3.9961-2.3828 5.9336-3.582 0.72656-0.46484 1.4492-0.89453 2.1602-1.3633 5.0898-3.2266 9.707-6.3867 13.555-9.3242 0.19922-0.15625 0.45313-0.33203 0.64453-0.47266l10.055 80.449zm-8.6602-106.46c-0.69531 0.70312-1.582 1.4961-2.6133 2.3477-0.33984 0.27344-0.76953 0.59766-1.1406 0.90234-0.73828 0.60547-1.5156 1.2148-2.3906 1.8789-0.50391 0.38672-1.082 0.78516-1.6211 1.1758-0.875 0.64453-1.7695 1.2812-2.7383 1.9531-0.62891 0.44531-1.2969 0.88672-1.9609 1.332-0.99219 0.6875-2.0117 1.3672-3.0859 2.0586-0.72656 0.47266-1.4727 0.95312-2.2422 1.4336-1.1016 0.71094-2.2422 1.4141-3.4102 2.125-0.80078 0.48828-1.6133 0.99219-2.4336 1.4805-1.2344 0.74609-2.5 1.4727-3.7734 2.2188-0.82812 0.46484-1.6445 0.94531-2.4727 1.3984-1.4492 0.82812-2.9453 1.6445-4.4414 2.4414-0.69531 0.37891-1.3828 0.76172-2.0859 1.125-0.19141 0.10938-0.37891 0.18359-0.57031 0.29688l19.293-19.293 12.793-38.375 27.668-27.676c3.5352-3.5352 3.5352-9.2578 0-12.793-3.5312-3.5352-9.2578-3.5352-12.793 0l-27.668 27.676-38.375 12.793-13.254 13.254c0.24609-0.49609 0.48047-1.0156 0.73438-1.5039 0.35547-0.71094 0.70312-1.3906 1.0508-2.0859 0.80078-1.5703 1.582-3.0938 2.3672-4.5742 0.33984-0.65234 0.69531-1.3398 1.043-1.9766 0.89453-1.6875 1.7773-3.3008 2.6328-4.832 0.16406-0.28125 0.33203-0.59766 0.49609-0.88672 0.99219-1.7617 1.9453-3.3906 2.8477-4.8984 0.28125-0.47266 0.55469-0.90234 0.82031-1.3555 0.61328-1 1.207-1.9531 1.7617-2.8203 0.28125-0.4375 0.54688-0.84375 0.8125-1.2422 0.51172-0.76953 0.99219-1.4648 1.4336-2.0859 0.19922-0.27344 0.40625-0.57031 0.59766-0.8125 0.58594-0.77734 1.1094-1.4414 1.5312-1.8516l230.27-230.24c12.062-12.07 51.223-25.535 63.957-12.793 12.75 12.742-0.72656 51.895-12.793 63.965zm206.4 87.805-101.61-167.02 56.918-56.926 19.344 69.609-0.03125 0.023437 27.934 100.59 0.023437-0.035156 11.129 40.047zm23.84-100.59-12.098 12.105-9.6875-34.777-6.1641-22.184c9.6133-3.2344 20.578-0.88672 27.941 6.4883 10.59 10.566 10.59 27.789 0.007813 38.367zm3.9062-238.58c-1.3555-18.824-15.133-32.602-33.957-33.949-4.9883-0.36328-9.3164 3.3828-9.6641 8.3672-0.37109 4.9805 3.3828 9.3242 8.3633 9.6719 10.168 0.73828 16.488 7.043 17.211 17.219 0.15625 2.25 1.1406 4.2539 2.625 5.7422 1.7773 1.7852 4.3125 2.8203 7.043 2.6211 4.9844-0.35547 8.7422-4.6875 8.3789-9.6719z"/>
 </g>
</svg>
